# xmcd CD database file
#
# Track frame offsets:
#	150
#	39379
#	70748
#	99207
#	124649
#	154516
#	179587
#
# Disc length: 2736 seconds
#
# Revision: 0
# Processed by: cddbd v1.5.2PL0 Copyright (c) Steve Scherf et al.
# Submitted via: CDex 1.70beta2
#
DISCID=4e0aae07
DTITLE=Forces Within - Maciek Grzywacz
DYEAR=2006
DGENRE=Jazz
TTITLE0=Right Balance
TTITLE1=Forces Within
TTITLE2=Chinook
TTITLE3=26-2
TTITLE4=More Than Four
TTITLE5=Central Park West
TTITLE6=Half an Apple
EXTD=YEAR: 2006
EXTT0=
EXTT1=
EXTT2=
EXTT3=
EXTT4=
EXTT5=
EXTT6=
PLAYORDER=
